<svg width="188" height="216" viewBox="0 0 188 216" fill="none" xmlns="http://www.w3.org/2000/svg">
<rect width="188" height="216" fill="#E5E5E5"/>
<path d="M30.9607 124.816L156.992 197.657C170.325 205.363 187 195.741 187 180.341L187 34.6592C187 19.2592 170.325 9.63719 156.992 17.3433L30.9606 90.184C17.6378 97.8841 17.6378 117.116 30.9607 124.816Z" fill="black" stroke="black"/>
<path d="M0.999992 15L1.00001 201C1.00001 208.732 7.26802 215 15 215C22.732 215 29 208.732 29 201L29 15C29 7.26803 22.732 1.00001 15 1.00001C7.26801 1.00001 0.999991 7.26803 0.999992 15Z" fill="black" stroke="black"/>
</svg>
