<svg width="456" height="71" viewBox="0 0 456 71" fill="none" xmlns="http://www.w3.org/2000/svg">
<rect width="456" height="71" fill="#E5E5E5"/>
<path d="M41.216 21.192C41.216 19.016 40.768 17.096 39.872 15.432C39.04 13.768 37.888 12.392 36.416 11.304C34.944 10.216 33.248 9.384 31.328 8.808C29.408 8.232 27.392 7.944 25.28 7.944C23.424 7.944 21.664 8.2 20 8.712C18.336 9.16 16.832 9.832 15.488 10.728C14.208 11.624 13.184 12.744 12.416 14.088C11.648 15.368 11.264 16.872 11.264 18.6V19.176C11.264 21.032 11.648 22.632 12.416 23.976C13.184 25.256 14.304 26.376 15.776 27.336C17.312 28.232 19.2 29 21.44 29.64C23.68 30.216 26.304 30.728 29.312 31.176C36.352 32.264 41.536 34.344 44.864 37.416C48.192 40.424 49.856 44.488 49.856 49.608V50.76C49.856 53.64 49.344 56.296 48.32 58.728C47.36 61.096 45.888 63.144 43.904 64.872C41.984 66.6 39.584 67.944 36.704 68.904C33.824 69.864 30.496 70.344 26.72 70.344C22.432 70.344 18.624 69.736 15.296 68.52C12.032 67.24 9.28 65.512 7.04 63.336C4.864 61.096 3.2 58.504 2.048 55.56C0.896 52.552 0.32 49.288 0.32 45.768V42.888H8.384V45.192C8.384 51.08 9.984 55.496 13.184 58.44C16.448 61.384 20.96 62.856 26.72 62.856C31.712 62.856 35.456 61.768 37.952 59.592C40.512 57.352 41.792 54.408 41.792 50.76V50.184C41.792 46.664 40.48 43.976 37.856 42.12C35.296 40.264 31.104 38.92 25.28 38.088C21.888 37.64 18.816 36.968 16.064 36.072C13.376 35.112 11.072 33.896 9.152 32.424C7.232 30.888 5.76 29.064 4.736 26.952C3.712 24.84 3.2 22.344 3.2 19.464V18.312C3.2 15.688 3.744 13.288 4.832 11.112C5.92 8.936 7.424 7.048 9.344 5.44799C11.328 3.848 13.664 2.632 16.352 1.8C19.104 0.903996 22.112 0.455996 25.376 0.455996C29.152 0.455996 32.512 0.999996 35.456 2.088C38.464 3.176 40.992 4.648 43.04 6.504C45.088 8.296 46.624 10.44 47.648 12.936C48.736 15.368 49.28 17.928 49.28 20.616V24.648H41.216V21.192ZM155.899 21.384H163.387V69H155.899V60.36H154.747C153.211 63.432 151.195 65.864 148.699 67.656C146.203 69.448 143.035 70.344 139.195 70.344C136.571 70.344 134.139 69.896 131.899 69C129.723 68.168 127.835 66.888 126.234 65.16C124.699 63.432 123.483 61.288 122.587 58.728C121.755 56.168 121.339 53.192 121.339 49.8V21.384H128.827V48.84C128.827 53.832 129.851 57.48 131.899 59.784C133.947 62.088 137.083 63.24 141.307 63.24C145.851 63.24 149.403 61.704 151.963 58.632C154.587 55.496 155.899 51.336 155.899 46.152V21.384ZM188.184 69H180.696V21.384H188.184V29.448H189.336C192.28 23.176 197.4 20.04 204.696 20.04C210.2 20.04 214.584 21.768 217.848 25.224C221.112 28.616 222.744 33.736 222.744 40.584V69H215.256V42.12C215.256 37.128 214.136 33.384 211.896 30.888C209.656 28.392 206.616 27.144 202.776 27.144C198.232 27.144 194.648 28.712 192.024 31.848C189.464 34.92 188.184 39.048 188.184 44.232V69ZM276.341 61.704H275.189C274.421 63.176 273.429 64.456 272.213 65.544C271.061 66.632 269.781 67.528 268.373 68.232C267.029 68.936 265.589 69.448 264.053 69.768C262.517 70.152 261.045 70.344 259.637 70.344C256.437 70.344 253.461 69.8 250.709 68.712C247.957 67.624 245.525 66.056 243.413 64.008C241.365 61.96 239.733 59.432 238.517 56.424C237.365 53.352 236.789 49.864 236.789 45.96V44.424C236.789 40.584 237.397 37.16 238.613 34.152C239.829 31.08 241.461 28.52 243.509 26.472C245.557 24.36 247.957 22.76 250.709 21.672C253.461 20.584 256.373 20.04 259.445 20.04C262.709 20.04 265.749 20.776 268.565 22.248C271.445 23.656 273.653 25.864 275.189 28.872H276.341V1.8H283.829V69H276.341V61.704ZM260.405 63.24C262.645 63.24 264.725 62.824 266.645 61.992C268.565 61.16 270.229 59.976 271.637 58.44C273.109 56.904 274.261 55.08 275.093 52.968C275.925 50.792 276.341 48.392 276.341 45.768V44.616C276.341 42.056 275.925 39.72 275.093 37.608C274.261 35.432 273.109 33.576 271.637 32.04C270.229 30.504 268.533 29.32 266.549 28.488C264.629 27.592 262.581 27.144 260.405 27.144C258.165 27.144 256.053 27.56 254.069 28.392C252.149 29.224 250.453 30.408 248.981 31.944C247.573 33.48 246.453 35.304 245.621 37.416C244.853 39.528 244.469 41.864 244.469 44.424V45.96C244.469 48.648 244.853 51.048 245.621 53.16C246.453 55.272 247.573 57.096 248.981 58.632C250.453 60.104 252.149 61.256 254.069 62.088C255.989 62.856 258.101 63.24 260.405 63.24ZM295.378 61.512H301.138V9.288H295.378V1.8H322.546C325.746 1.8 328.562 2.248 330.994 3.144C333.49 4.04 335.57 5.256 337.234 6.792C338.962 8.328 340.242 10.184 341.074 12.36C341.97 14.472 342.418 16.776 342.418 19.272V20.424C342.418 22.28 342.13 23.976 341.554 25.512C340.978 27.048 340.178 28.424 339.154 29.64C338.13 30.856 336.914 31.912 335.506 32.808C334.162 33.64 332.69 34.28 331.09 34.728V35.88C334.29 36.776 336.978 38.504 339.154 41.064C341.33 43.56 342.418 46.632 342.418 50.28V51.432C342.418 53.928 341.97 56.264 341.074 58.44C340.242 60.552 338.962 62.408 337.234 64.008C335.57 65.544 333.49 66.76 330.994 67.656C328.562 68.552 325.746 69 322.546 69H295.378V61.512ZM309.202 61.512H321.97C325.746 61.512 328.818 60.584 331.186 58.728C333.554 56.808 334.738 54.184 334.738 50.856V50.28C334.738 46.824 333.618 44.104 331.378 42.12C329.138 40.072 326.098 39.048 322.258 39.048H309.202V61.512ZM309.202 31.56H322.258C326.098 31.56 329.138 30.568 331.378 28.584C333.618 26.6 334.738 23.88 334.738 20.424V19.848C334.738 16.584 333.554 14.024 331.186 12.168C328.818 10.248 325.746 9.288 321.97 9.288H309.202V31.56ZM371.824 7.17599C371.824 5.32 372.464 3.752 373.744 2.472C375.088 1.128 376.688 0.455996 378.544 0.455996C380.4 0.455996 381.968 1.128 383.248 2.472C384.592 3.752 385.264 5.32 385.264 7.17599C385.264 9.032 384.592 10.632 383.248 11.976C381.968 13.256 380.4 13.896 378.544 13.896C376.688 13.896 375.088 13.256 373.744 11.976C372.464 10.632 371.824 9.032 371.824 7.17599ZM358.192 62.088H374.896V28.296H359.92V21.384H382.384V62.088H397.936V69H358.192V62.088ZM414.189 21.384H429.165V1.8H436.653V21.384H455.085V28.296H436.653V59.208C436.653 61.128 437.517 62.088 439.245 62.088H452.781V69H436.557C434.381 69 432.589 68.296 431.181 66.888C429.837 65.48 429.165 63.688 429.165 61.512V28.296H414.189V21.384Z" fill="black"/>
<path d="M41.216 21.192C41.216 19.016 40.768 17.096 39.872 15.432C39.04 13.768 37.888 12.392 36.416 11.304C34.944 10.216 33.248 9.384 31.328 8.808C29.408 8.232 27.392 7.944 25.28 7.944C23.424 7.944 21.664 8.2 20 8.712C18.336 9.16 16.832 9.832 15.488 10.728C14.208 11.624 13.184 12.744 12.416 14.088C11.648 15.368 11.264 16.872 11.264 18.6V19.176C11.264 21.032 11.648 22.632 12.416 23.976C13.184 25.256 14.304 26.376 15.776 27.336C17.312 28.232 19.2 29 21.44 29.64C23.68 30.216 26.304 30.728 29.312 31.176C36.352 32.264 41.536 34.344 44.864 37.416C48.192 40.424 49.856 44.488 49.856 49.608V50.76C49.856 53.64 49.344 56.296 48.32 58.728C47.36 61.096 45.888 63.144 43.904 64.872C41.984 66.6 39.584 67.944 36.704 68.904C33.824 69.864 30.496 70.344 26.72 70.344C22.432 70.344 18.624 69.736 15.296 68.52C12.032 67.24 9.28 65.512 7.04 63.336C4.864 61.096 3.2 58.504 2.048 55.56C0.896 52.552 0.32 49.288 0.32 45.768V42.888H8.384V45.192C8.384 51.08 9.984 55.496 13.184 58.44C16.448 61.384 20.96 62.856 26.72 62.856C31.712 62.856 35.456 61.768 37.952 59.592C40.512 57.352 41.792 54.408 41.792 50.76V50.184C41.792 46.664 40.48 43.976 37.856 42.12C35.296 40.264 31.104 38.92 25.28 38.088C21.888 37.64 18.816 36.968 16.064 36.072C13.376 35.112 11.072 33.896 9.152 32.424C7.232 30.888 5.76 29.064 4.736 26.952C3.712 24.84 3.2 22.344 3.2 19.464V18.312C3.2 15.688 3.744 13.288 4.832 11.112C5.92 8.936 7.424 7.048 9.344 5.44799C11.328 3.848 13.664 2.632 16.352 1.8C19.104 0.903996 22.112 0.455996 25.376 0.455996C29.152 0.455996 32.512 0.999996 35.456 2.088C38.464 3.176 40.992 4.648 43.04 6.504C45.088 8.296 46.624 10.44 47.648 12.936C48.736 15.368 49.28 17.928 49.28 20.616V24.648H41.216V21.192ZM155.899 21.384H163.387V69H155.899V60.36H154.747C153.211 63.432 151.195 65.864 148.699 67.656C146.203 69.448 143.035 70.344 139.195 70.344C136.571 70.344 134.139 69.896 131.899 69C129.723 68.168 127.835 66.888 126.234 65.16C124.699 63.432 123.483 61.288 122.587 58.728C121.755 56.168 121.339 53.192 121.339 49.8V21.384H128.827V48.84C128.827 53.832 129.851 57.48 131.899 59.784C133.947 62.088 137.083 63.24 141.307 63.24C145.851 63.24 149.403 61.704 151.963 58.632C154.587 55.496 155.899 51.336 155.899 46.152V21.384ZM188.184 69H180.696V21.384H188.184V29.448H189.336C192.28 23.176 197.4 20.04 204.696 20.04C210.2 20.04 214.584 21.768 217.848 25.224C221.112 28.616 222.744 33.736 222.744 40.584V69H215.256V42.12C215.256 37.128 214.136 33.384 211.896 30.888C209.656 28.392 206.616 27.144 202.776 27.144C198.232 27.144 194.648 28.712 192.024 31.848C189.464 34.92 188.184 39.048 188.184 44.232V69ZM276.341 61.704H275.189C274.421 63.176 273.429 64.456 272.213 65.544C271.061 66.632 269.781 67.528 268.373 68.232C267.029 68.936 265.589 69.448 264.053 69.768C262.517 70.152 261.045 70.344 259.637 70.344C256.437 70.344 253.461 69.8 250.709 68.712C247.957 67.624 245.525 66.056 243.413 64.008C241.365 61.96 239.733 59.432 238.517 56.424C237.365 53.352 236.789 49.864 236.789 45.96V44.424C236.789 40.584 237.397 37.16 238.613 34.152C239.829 31.08 241.461 28.52 243.509 26.472C245.557 24.36 247.957 22.76 250.709 21.672C253.461 20.584 256.373 20.04 259.445 20.04C262.709 20.04 265.749 20.776 268.565 22.248C271.445 23.656 273.653 25.864 275.189 28.872H276.341V1.8H283.829V69H276.341V61.704ZM260.405 63.24C262.645 63.24 264.725 62.824 266.645 61.992C268.565 61.16 270.229 59.976 271.637 58.44C273.109 56.904 274.261 55.08 275.093 52.968C275.925 50.792 276.341 48.392 276.341 45.768V44.616C276.341 42.056 275.925 39.72 275.093 37.608C274.261 35.432 273.109 33.576 271.637 32.04C270.229 30.504 268.533 29.32 266.549 28.488C264.629 27.592 262.581 27.144 260.405 27.144C258.165 27.144 256.053 27.56 254.069 28.392C252.149 29.224 250.453 30.408 248.981 31.944C247.573 33.48 246.453 35.304 245.621 37.416C244.853 39.528 244.469 41.864 244.469 44.424V45.96C244.469 48.648 244.853 51.048 245.621 53.16C246.453 55.272 247.573 57.096 248.981 58.632C250.453 60.104 252.149 61.256 254.069 62.088C255.989 62.856 258.101 63.24 260.405 63.24ZM295.378 61.512H301.138V9.288H295.378V1.8H322.546C325.746 1.8 328.562 2.248 330.994 3.144C333.49 4.04 335.57 5.256 337.234 6.792C338.962 8.328 340.242 10.184 341.074 12.36C341.97 14.472 342.418 16.776 342.418 19.272V20.424C342.418 22.28 342.13 23.976 341.554 25.512C340.978 27.048 340.178 28.424 339.154 29.64C338.13 30.856 336.914 31.912 335.506 32.808C334.162 33.64 332.69 34.28 331.09 34.728V35.88C334.29 36.776 336.978 38.504 339.154 41.064C341.33 43.56 342.418 46.632 342.418 50.28V51.432C342.418 53.928 341.97 56.264 341.074 58.44C340.242 60.552 338.962 62.408 337.234 64.008C335.57 65.544 333.49 66.76 330.994 67.656C328.562 68.552 325.746 69 322.546 69H295.378V61.512ZM309.202 61.512H321.97C325.746 61.512 328.818 60.584 331.186 58.728C333.554 56.808 334.738 54.184 334.738 50.856V50.28C334.738 46.824 333.618 44.104 331.378 42.12C329.138 40.072 326.098 39.048 322.258 39.048H309.202V61.512ZM309.202 31.56H322.258C326.098 31.56 329.138 30.568 331.378 28.584C333.618 26.6 334.738 23.88 334.738 20.424V19.848C334.738 16.584 333.554 14.024 331.186 12.168C328.818 10.248 325.746 9.288 321.97 9.288H309.202V31.56ZM371.824 7.17599C371.824 5.32 372.464 3.752 373.744 2.472C375.088 1.128 376.688 0.455996 378.544 0.455996C380.4 0.455996 381.968 1.128 383.248 2.472C384.592 3.752 385.264 5.32 385.264 7.17599C385.264 9.032 384.592 10.632 383.248 11.976C381.968 13.256 380.4 13.896 378.544 13.896C376.688 13.896 375.088 13.256 373.744 11.976C372.464 10.632 371.824 9.032 371.824 7.17599ZM358.192 62.088H374.896V28.296H359.92V21.384H382.384V62.088H397.936V69H358.192V62.088ZM414.189 21.384H429.165V1.8H436.653V21.384H455.085V28.296H436.653V59.208C436.653 61.128 437.517 62.088 439.245 62.088H452.781V69H436.557C434.381 69 432.589 68.296 431.181 66.888C429.837 65.48 429.165 63.688 429.165 61.512V28.296H414.189V21.384Z" fill="url(#paint0_linear_0_1)" fill-opacity="0.83"/>
<path d="M41.216 21.192C41.216 19.016 40.768 17.096 39.872 15.432C39.04 13.768 37.888 12.392 36.416 11.304C34.944 10.216 33.248 9.384 31.328 8.808C29.408 8.232 27.392 7.944 25.28 7.944C23.424 7.944 21.664 8.2 20 8.712C18.336 9.16 16.832 9.832 15.488 10.728C14.208 11.624 13.184 12.744 12.416 14.088C11.648 15.368 11.264 16.872 11.264 18.6V19.176C11.264 21.032 11.648 22.632 12.416 23.976C13.184 25.256 14.304 26.376 15.776 27.336C17.312 28.232 19.2 29 21.44 29.64C23.68 30.216 26.304 30.728 29.312 31.176C36.352 32.264 41.536 34.344 44.864 37.416C48.192 40.424 49.856 44.488 49.856 49.608V50.76C49.856 53.64 49.344 56.296 48.32 58.728C47.36 61.096 45.888 63.144 43.904 64.872C41.984 66.6 39.584 67.944 36.704 68.904C33.824 69.864 30.496 70.344 26.72 70.344C22.432 70.344 18.624 69.736 15.296 68.52C12.032 67.24 9.28 65.512 7.04 63.336C4.864 61.096 3.2 58.504 2.048 55.56C0.896 52.552 0.32 49.288 0.32 45.768V42.888H8.384V45.192C8.384 51.08 9.984 55.496 13.184 58.44C16.448 61.384 20.96 62.856 26.72 62.856C31.712 62.856 35.456 61.768 37.952 59.592C40.512 57.352 41.792 54.408 41.792 50.76V50.184C41.792 46.664 40.48 43.976 37.856 42.12C35.296 40.264 31.104 38.92 25.28 38.088C21.888 37.64 18.816 36.968 16.064 36.072C13.376 35.112 11.072 33.896 9.152 32.424C7.232 30.888 5.76 29.064 4.736 26.952C3.712 24.84 3.2 22.344 3.2 19.464V18.312C3.2 15.688 3.744 13.288 4.832 11.112C5.92 8.936 7.424 7.048 9.344 5.44799C11.328 3.848 13.664 2.632 16.352 1.8C19.104 0.903996 22.112 0.455996 25.376 0.455996C29.152 0.455996 32.512 0.999996 35.456 2.088C38.464 3.176 40.992 4.648 43.04 6.504C45.088 8.296 46.624 10.44 47.648 12.936C48.736 15.368 49.28 17.928 49.28 20.616V24.648H41.216V21.192ZM155.899 21.384H163.387V69H155.899V60.36H154.747C153.211 63.432 151.195 65.864 148.699 67.656C146.203 69.448 143.035 70.344 139.195 70.344C136.571 70.344 134.139 69.896 131.899 69C129.723 68.168 127.835 66.888 126.234 65.16C124.699 63.432 123.483 61.288 122.587 58.728C121.755 56.168 121.339 53.192 121.339 49.8V21.384H128.827V48.84C128.827 53.832 129.851 57.48 131.899 59.784C133.947 62.088 137.083 63.24 141.307 63.24C145.851 63.24 149.403 61.704 151.963 58.632C154.587 55.496 155.899 51.336 155.899 46.152V21.384ZM188.184 69H180.696V21.384H188.184V29.448H189.336C192.28 23.176 197.4 20.04 204.696 20.04C210.2 20.04 214.584 21.768 217.848 25.224C221.112 28.616 222.744 33.736 222.744 40.584V69H215.256V42.12C215.256 37.128 214.136 33.384 211.896 30.888C209.656 28.392 206.616 27.144 202.776 27.144C198.232 27.144 194.648 28.712 192.024 31.848C189.464 34.92 188.184 39.048 188.184 44.232V69ZM276.341 61.704H275.189C274.421 63.176 273.429 64.456 272.213 65.544C271.061 66.632 269.781 67.528 268.373 68.232C267.029 68.936 265.589 69.448 264.053 69.768C262.517 70.152 261.045 70.344 259.637 70.344C256.437 70.344 253.461 69.8 250.709 68.712C247.957 67.624 245.525 66.056 243.413 64.008C241.365 61.96 239.733 59.432 238.517 56.424C237.365 53.352 236.789 49.864 236.789 45.96V44.424C236.789 40.584 237.397 37.16 238.613 34.152C239.829 31.08 241.461 28.52 243.509 26.472C245.557 24.36 247.957 22.76 250.709 21.672C253.461 20.584 256.373 20.04 259.445 20.04C262.709 20.04 265.749 20.776 268.565 22.248C271.445 23.656 273.653 25.864 275.189 28.872H276.341V1.8H283.829V69H276.341V61.704ZM260.405 63.24C262.645 63.24 264.725 62.824 266.645 61.992C268.565 61.16 270.229 59.976 271.637 58.44C273.109 56.904 274.261 55.08 275.093 52.968C275.925 50.792 276.341 48.392 276.341 45.768V44.616C276.341 42.056 275.925 39.72 275.093 37.608C274.261 35.432 273.109 33.576 271.637 32.04C270.229 30.504 268.533 29.32 266.549 28.488C264.629 27.592 262.581 27.144 260.405 27.144C258.165 27.144 256.053 27.56 254.069 28.392C252.149 29.224 250.453 30.408 248.981 31.944C247.573 33.48 246.453 35.304 245.621 37.416C244.853 39.528 244.469 41.864 244.469 44.424V45.96C244.469 48.648 244.853 51.048 245.621 53.16C246.453 55.272 247.573 57.096 248.981 58.632C250.453 60.104 252.149 61.256 254.069 62.088C255.989 62.856 258.101 63.24 260.405 63.24ZM295.378 61.512H301.138V9.288H295.378V1.8H322.546C325.746 1.8 328.562 2.248 330.994 3.144C333.49 4.04 335.57 5.256 337.234 6.792C338.962 8.328 340.242 10.184 341.074 12.36C341.97 14.472 342.418 16.776 342.418 19.272V20.424C342.418 22.28 342.13 23.976 341.554 25.512C340.978 27.048 340.178 28.424 339.154 29.64C338.13 30.856 336.914 31.912 335.506 32.808C334.162 33.64 332.69 34.28 331.09 34.728V35.88C334.29 36.776 336.978 38.504 339.154 41.064C341.33 43.56 342.418 46.632 342.418 50.28V51.432C342.418 53.928 341.97 56.264 341.074 58.44C340.242 60.552 338.962 62.408 337.234 64.008C335.57 65.544 333.49 66.76 330.994 67.656C328.562 68.552 325.746 69 322.546 69H295.378V61.512ZM309.202 61.512H321.97C325.746 61.512 328.818 60.584 331.186 58.728C333.554 56.808 334.738 54.184 334.738 50.856V50.28C334.738 46.824 333.618 44.104 331.378 42.12C329.138 40.072 326.098 39.048 322.258 39.048H309.202V61.512ZM309.202 31.56H322.258C326.098 31.56 329.138 30.568 331.378 28.584C333.618 26.6 334.738 23.88 334.738 20.424V19.848C334.738 16.584 333.554 14.024 331.186 12.168C328.818 10.248 325.746 9.288 321.97 9.288H309.202V31.56ZM371.824 7.17599C371.824 5.32 372.464 3.752 373.744 2.472C375.088 1.128 376.688 0.455996 378.544 0.455996C380.4 0.455996 381.968 1.128 383.248 2.472C384.592 3.752 385.264 5.32 385.264 7.17599C385.264 9.032 384.592 10.632 383.248 11.976C381.968 13.256 380.4 13.896 378.544 13.896C376.688 13.896 375.088 13.256 373.744 11.976C372.464 10.632 371.824 9.032 371.824 7.17599ZM358.192 62.088H374.896V28.296H359.92V21.384H382.384V62.088H397.936V69H358.192V62.088ZM414.189 21.384H429.165V1.8H436.653V21.384H455.085V28.296H436.653V59.208C436.653 61.128 437.517 62.088 439.245 62.088H452.781V69H436.557C434.381 69 432.589 68.296 431.181 66.888C429.837 65.48 429.165 63.688 429.165 61.512V28.296H414.189V21.384Z" fill="url(#paint1_linear_0_1)" fill-opacity="0.5"/>
<g clip-path="url(#clip0_0_1)">
<path fill-rule="evenodd" clip-rule="evenodd" d="M109.864 49.295L76.4091 68.1216C72.2273 70.475 67 67.5333 67 62.8266L67 25.1734C67 20.4667 72.2273 17.525 76.4091 19.8784L109.864 38.705C114.045 41.0583 114.045 46.9417 109.864 49.295ZM96.2727 44C96.2727 50.3783 90.968 55.5489 84.4242 55.5489C82.3959 55.5489 80.4866 55.0522 78.8174 54.1766C79.4442 54.3167 80.0949 54.3599 80.7458 54.2996C82.248 54.1606 83.6431 53.4807 84.6584 52.3927C85.5128 51.477 86.0466 50.3277 86.1944 49.1101C86.2245 48.9447 86.2403 48.7738 86.2403 48.5985V38.6118C86.3642 38.7571 86.4881 38.8904 86.6119 39.0236H86.612C86.7372 39.1583 86.8624 39.2929 86.9874 39.4399C87.0612 39.5192 87.1353 39.5984 87.2096 39.6776C88.1392 40.6701 89.0688 41.6626 88.9306 42.655C88.8808 43.3371 88.2828 44.0193 87.2866 44.7499C87.0375 44.8961 86.9877 45.1883 87.1869 45.4319C87.2866 45.578 87.436 45.6269 87.5857 45.6269C87.6848 45.6269 87.7843 45.5783 87.8834 45.5298L87.8843 45.5294C89.1797 44.6524 89.8273 43.7268 89.9271 42.7526C90.0236 41.2404 88.9013 40.0491 87.7882 38.8675C87.7633 38.8409 87.7383 38.8144 87.7134 38.7879C87.7039 38.7779 87.6946 38.7679 87.6851 38.7579H87.6854C87.0376 38.1245 86.4896 37.4912 86.141 36.9067V36.8577C86.1393 36.8325 86.1282 36.8087 86.1099 36.7909C86.0915 36.773 86.0671 36.7622 86.0414 36.7606L85.9411 36.663H85.5928C85.5432 36.663 85.5432 36.663 85.4934 36.7117C85.4434 36.7117 85.3937 36.7606 85.3937 36.7606L85.2939 36.8577C85.2939 36.8822 85.2815 36.8944 85.2691 36.9067C85.2566 36.9189 85.2443 36.931 85.2443 36.9553V46.455C84.746 46.0652 84.1482 45.8216 83.4509 45.8216C81.9061 45.8216 80.6606 47.0398 80.6606 48.5985C80.6606 50.1088 81.9061 51.3753 83.4506 51.3753C83.8158 51.3753 84.1644 51.3072 84.4836 51.1826C84.2927 51.4323 84.0801 51.6711 83.8469 51.8961C82.6682 53.0342 81.0487 53.7454 79.3047 53.8908C78.9829 53.9177 78.6612 53.9249 78.3416 53.9129C74.8876 51.8951 72.5758 48.2107 72.5758 44C72.5758 37.6217 77.8805 32.4511 84.4242 32.4511C90.968 32.4511 96.2727 37.6217 96.2727 44ZM83.4005 50.3522C82.4043 50.3522 81.6072 49.573 81.6072 48.5499C81.6072 47.5268 82.4043 46.7473 83.4005 46.7473C84.3971 46.7473 85.1943 47.5268 85.1943 48.5499C85.1943 49.573 84.3971 50.3524 83.4005 50.3524V50.3522Z" fill="url(#paint2_linear_0_1)" fill-opacity="0.83"/>
<path fill-rule="evenodd" clip-rule="evenodd" d="M109.864 49.295L76.4091 68.1216C72.2273 70.475 67 67.5333 67 62.8266L67 25.1734C67 20.4667 72.2273 17.525 76.4091 19.8784L109.864 38.705C114.045 41.0583 114.045 46.9417 109.864 49.295ZM96.2727 44C96.2727 50.3783 90.968 55.5489 84.4242 55.5489C82.3959 55.5489 80.4866 55.0522 78.8174 54.1766C79.4442 54.3167 80.0949 54.3599 80.7458 54.2996C82.248 54.1606 83.6431 53.4807 84.6584 52.3927C85.5128 51.477 86.0466 50.3277 86.1944 49.1101C86.2245 48.9447 86.2403 48.7738 86.2403 48.5985V38.6118C86.3642 38.7571 86.4881 38.8904 86.6119 39.0236H86.612C86.7372 39.1583 86.8624 39.2929 86.9874 39.4399C87.0612 39.5192 87.1353 39.5984 87.2096 39.6776C88.1392 40.6701 89.0688 41.6626 88.9306 42.655C88.8808 43.3371 88.2828 44.0193 87.2866 44.7499C87.0375 44.8961 86.9877 45.1883 87.1869 45.4319C87.2866 45.578 87.436 45.6269 87.5857 45.6269C87.6848 45.6269 87.7843 45.5783 87.8834 45.5298L87.8843 45.5294C89.1797 44.6524 89.8273 43.7268 89.9271 42.7526C90.0236 41.2404 88.9013 40.0491 87.7882 38.8675C87.7633 38.8409 87.7383 38.8144 87.7134 38.7879C87.7039 38.7779 87.6946 38.7679 87.6851 38.7579H87.6854C87.0376 38.1245 86.4896 37.4912 86.141 36.9067V36.8577C86.1393 36.8325 86.1282 36.8087 86.1099 36.7909C86.0915 36.773 86.0671 36.7622 86.0414 36.7606L85.9411 36.663H85.5928C85.5432 36.663 85.5432 36.663 85.4934 36.7117C85.4434 36.7117 85.3937 36.7606 85.3937 36.7606L85.2939 36.8577C85.2939 36.8822 85.2815 36.8944 85.2691 36.9067C85.2566 36.9189 85.2443 36.931 85.2443 36.9553V46.455C84.746 46.0652 84.1482 45.8216 83.4509 45.8216C81.9061 45.8216 80.6606 47.0398 80.6606 48.5985C80.6606 50.1088 81.9061 51.3753 83.4506 51.3753C83.8158 51.3753 84.1644 51.3072 84.4836 51.1826C84.2927 51.4323 84.0801 51.6711 83.8469 51.8961C82.6682 53.0342 81.0487 53.7454 79.3047 53.8908C78.9829 53.9177 78.6612 53.9249 78.3416 53.9129C74.8876 51.8951 72.5758 48.2107 72.5758 44C72.5758 37.6217 77.8805 32.4511 84.4242 32.4511C90.968 32.4511 96.2727 37.6217 96.2727 44ZM83.4005 50.3522C82.4043 50.3522 81.6072 49.573 81.6072 48.5499C81.6072 47.5268 82.4043 46.7473 83.4005 46.7473C84.3971 46.7473 85.1943 47.5268 85.1943 48.5499C85.1943 49.573 84.3971 50.3524 83.4005 50.3524V50.3522Z" fill="url(#paint3_linear_0_1)" fill-opacity="0.5"/>
</g>
<defs>
<linearGradient id="paint0_linear_0_1" x1="100.779" y1="10.2089" x2="108.299" y2="107.369" gradientUnits="userSpaceOnUse">
<stop stop-color="#6100FF"/>
<stop offset="0.99684" stop-color="#00F0FF"/>
</linearGradient>
<linearGradient id="paint1_linear_0_1" x1="352.395" y1="-34.8978" x2="215.308" y2="166.44" gradientUnits="userSpaceOnUse">
<stop offset="0.361406" stop-color="#FF00E5"/>
<stop offset="1" stop-color="#6C00F7" stop-opacity="0"/>
</linearGradient>
<linearGradient id="paint2_linear_0_1" x1="76.897" y1="37.2745" x2="87.3409" y2="70.9887" gradientUnits="userSpaceOnUse">
<stop stop-color="#6100FF"/>
<stop offset="0.99684" stop-color="#00F0FF"/>
</linearGradient>
<linearGradient id="paint3_linear_0_1" x1="100.664" y1="20.2228" x2="64.636" y2="33.4439" gradientUnits="userSpaceOnUse">
<stop offset="0.0445995" stop-color="#FF00E5"/>
<stop offset="1" stop-color="#6C00F7" stop-opacity="0"/>
</linearGradient>
<clipPath id="clip0_0_1">
<rect width="46" height="50" fill="white" transform="translate(67 19)"/>
</clipPath>
</defs>
</svg>
