<svg width="30" height="23" viewBox="0 0 30 23" fill="none" xmlns="http://www.w3.org/2000/svg">
<path d="M0 8.5C0 7.67157 0.671573 7 1.5 7H9V16H1.5C0.671573 16 0 15.3284 0 14.5V8.5Z" fill="#6200FF"/>
<path d="M9 7V16L15.4393 22.4393C16.3843 23.3843 18 22.715 18 21.3787V1.62132C18 0.284963 16.3843 -0.38429 15.4393 0.560658L9 7Z" fill="#6200FF"/>
<path d="M20 17C21.3261 17 22.5979 16.3679 23.5355 15.2426C24.4732 14.1174 25 12.5913 25 11C25 9.4087 24.4732 7.88258 23.5355 6.75736C22.5979 5.63214 21.3261 5 20 5L20 17Z" fill="#6200FF"/>
<path d="M23.8268 21.1627C22.6136 21.7155 21.3132 22 20 22V20C21.0506 20 22.0909 19.7672 23.0615 19.3149C24.032 18.8626 24.914 18.1997 25.6569 17.364C26.3997 16.5282 26.989 15.5361 27.3911 14.4441C27.7931 13.3522 28 12.1819 28 11C28 9.8181 27.7931 8.64778 27.3911 7.55585C26.989 6.46392 26.3997 5.47177 25.6569 4.63604C24.914 3.80031 24.032 3.13737 23.0615 2.68509C22.0909 2.23279 21.0506 2 20 2V0C21.3132 0 22.6136 0.284523 23.8268 0.837326C25.0401 1.39013 26.1425 2.20038 27.071 3.22182C27.9996 4.24327 28.7363 5.4559 29.2388 6.79048C29.7413 8.12506 30 9.55546 30 11C30 12.4445 29.7413 13.8749 29.2388 15.2095C28.7363 16.5441 27.9996 17.7567 27.071 18.7782C26.1425 19.7996 25.0401 20.6099 23.8268 21.1627Z" fill="#6200FF"/>
</svg>
