<svg width="330" height="368" viewBox="0 0 330 368" fill="none" xmlns="http://www.w3.org/2000/svg">
<path fill-rule="evenodd" clip-rule="evenodd" d="M307.5 222.971L67.5 361.535C37.5 378.856 -1.6773e-05 357.205 -1.52588e-05 322.564L-3.14513e-06 45.4359C-1.63093e-06 10.7949 37.5 -10.8557 67.5 6.4648L307.5 145.029C337.5 162.349 337.5 205.651 307.5 222.971ZM210 184C210 230.944 171.944 269 125 269C110.449 269 96.7517 265.344 84.7772 258.9C89.2734 259.931 93.9418 260.249 98.6113 259.805C109.388 258.782 119.396 253.778 126.68 245.77C132.809 239.031 136.639 230.572 137.699 221.61C137.915 220.393 138.028 219.135 138.028 217.845V144.343C138.917 145.412 139.806 146.393 140.694 147.374L140.694 147.374L140.695 147.374C141.593 148.365 142.491 149.356 143.388 150.438C143.917 151.021 144.449 151.604 144.982 152.187C151.651 159.492 158.32 166.797 157.328 174.101C156.971 179.121 152.681 184.142 145.534 189.519C143.746 190.595 143.39 192.746 144.818 194.539C145.534 195.614 146.606 195.974 147.68 195.974C148.391 195.974 149.105 195.616 149.816 195.259L149.816 195.259L149.822 195.256C159.115 188.802 163.761 181.989 164.477 174.819C165.169 163.689 157.118 154.921 149.133 146.225C148.954 146.029 148.775 145.834 148.596 145.639C148.528 145.565 148.461 145.492 148.393 145.418H148.395C143.748 140.756 139.817 136.095 137.316 131.793V131.433C137.304 131.247 137.224 131.072 137.093 130.941C136.961 130.809 136.786 130.73 136.601 130.718L135.882 130H133.383C133.027 130 133.026 130 132.67 130.358C132.311 130.358 131.954 130.718 131.954 130.718L131.239 131.433C131.239 131.613 131.15 131.703 131.061 131.793C130.971 131.883 130.883 131.972 130.883 132.151V202.069C127.308 199.2 123.02 197.407 118.017 197.407C106.935 197.407 98 206.373 98 217.845C98 228.961 106.935 238.282 118.015 238.282C120.635 238.282 123.136 237.781 125.426 236.864C124.056 238.702 122.531 240.459 120.858 242.115C112.402 250.492 100.784 255.726 88.2729 256.796C85.9645 256.994 83.6563 257.047 81.3638 256.959C56.5851 242.108 40 214.991 40 184C40 137.056 78.0558 99 125 99C171.944 99 210 137.056 210 184ZM117.656 230.752C110.509 230.752 104.791 225.017 104.791 217.487C104.791 209.957 110.509 204.22 117.656 204.22C124.805 204.22 130.524 209.957 130.524 217.487C130.524 225.017 124.805 230.754 117.656 230.754V230.752Z" fill="url(#paint0_linear)" fill-opacity="0.83"/>
<path fill-rule="evenodd" clip-rule="evenodd" d="M307.5 222.971L67.5 361.535C37.5 378.856 -1.6773e-05 357.205 -1.52588e-05 322.564L-3.14513e-06 45.4359C-1.63093e-06 10.7949 37.5 -10.8557 67.5 6.4648L307.5 145.029C337.5 162.349 337.5 205.651 307.5 222.971ZM210 184C210 230.944 171.944 269 125 269C110.449 269 96.7517 265.344 84.7772 258.9C89.2734 259.931 93.9418 260.249 98.6113 259.805C109.388 258.782 119.396 253.778 126.68 245.77C132.809 239.031 136.639 230.572 137.699 221.61C137.915 220.393 138.028 219.135 138.028 217.845V144.343C138.917 145.412 139.806 146.393 140.694 147.374L140.694 147.374L140.695 147.374C141.593 148.365 142.491 149.356 143.388 150.438C143.917 151.021 144.449 151.604 144.982 152.187C151.651 159.492 158.32 166.797 157.328 174.101C156.971 179.121 152.681 184.142 145.534 189.519C143.746 190.595 143.39 192.746 144.818 194.539C145.534 195.614 146.606 195.974 147.68 195.974C148.391 195.974 149.105 195.616 149.816 195.259L149.816 195.259L149.822 195.256C159.115 188.802 163.761 181.989 164.477 174.819C165.169 163.689 157.118 154.921 149.133 146.225C148.954 146.029 148.775 145.834 148.596 145.639C148.528 145.565 148.461 145.492 148.393 145.418H148.395C143.748 140.756 139.817 136.095 137.316 131.793V131.433C137.304 131.247 137.224 131.072 137.093 130.941C136.961 130.809 136.786 130.73 136.601 130.718L135.882 130H133.383C133.027 130 133.026 130 132.67 130.358C132.311 130.358 131.954 130.718 131.954 130.718L131.239 131.433C131.239 131.613 131.15 131.703 131.061 131.793C130.971 131.883 130.883 131.972 130.883 132.151V202.069C127.308 199.2 123.02 197.407 118.017 197.407C106.935 197.407 98 206.373 98 217.845C98 228.961 106.935 238.282 118.015 238.282C120.635 238.282 123.136 237.781 125.426 236.864C124.056 238.702 122.531 240.459 120.858 242.115C112.402 250.492 100.784 255.726 88.2729 256.796C85.9645 256.994 83.6563 257.047 81.3638 256.959C56.5851 242.108 40 214.991 40 184C40 137.056 78.0558 99 125 99C171.944 99 210 137.056 210 184ZM117.656 230.752C110.509 230.752 104.791 225.017 104.791 217.487C104.791 209.957 110.509 204.22 117.656 204.22C124.805 204.22 130.524 209.957 130.524 217.487C130.524 225.017 124.805 230.754 117.656 230.754V230.752Z" fill="url(#paint1_linear)" fill-opacity="0.5"/>
<defs>
<linearGradient id="paint0_linear" x1="71" y1="134.5" x2="149.5" y2="381.5" gradientUnits="userSpaceOnUse">
<stop stop-color="#6100FF"/>
<stop offset="0.99684" stop-color="#00F0FF"/>
</linearGradient>
<linearGradient id="paint1_linear" x1="241.5" y1="8.99999" x2="-18.5" y2="102" gradientUnits="userSpaceOnUse">
<stop offset="0.0445995" stop-color="#FF00E5"/>
<stop offset="1" stop-color="#6C00F7" stop-opacity="0"/>
</linearGradient>
</defs>
</svg>
