<svg width="188" height="216" viewBox="0 0 188 216" fill="none" xmlns="http://www.w3.org/2000/svg">
<rect width="188" height="216" fill="#E5E5E5"/>
<path d="M36 1H21C9.95431 1 1 9.9543 1 21V195C1 206.046 9.95431 215 21 215H36C47.0457 215 56 206.046 56 195V21C56 9.95431 47.0457 1 36 1Z" fill="black" stroke="black"/>
<path d="M167 1H152C140.954 1 132 9.9543 132 21V195C132 206.046 140.954 215 152 215H167C178.046 215 187 206.046 187 195V21C187 9.95431 178.046 1 167 1Z" fill="black" stroke="black"/>
</svg>
