<svg width="168" height="189" viewBox="0 0 168 189" fill="none" xmlns="http://www.w3.org/2000/svg">
<rect width="168" height="189" fill="#E5E5E5"/>
<path d="M122.669 56.0822L93 39V148.73L122.669 131.647C123.018 131.471 123.366 131.284 123.712 131.086L157.561 111.64C171.279 103.76 171.279 83.9697 157.561 76.0892L123.712 56.6438C123.366 56.4453 123.019 56.2582 122.669 56.0822Z" fill="#6200FF"/>
<path d="M30.8234 2.81995C17.157 -5.14608 0 4.71219 0 20.5309V167.916C0 183.735 17.157 193.593 30.8235 185.627L84.3235 154.443C84.6476 154.254 84.9653 154.057 85.2764 153.852L94.5 148.512V39.9382L82.4889 32.8408L82.4901 32.9358L30.8234 2.81995Z" fill="#6200FF"/>
</svg>
