<svg width="186" height="214" viewBox="0 0 186 214" fill="none" xmlns="http://www.w3.org/2000/svg">
<rect width="186" height="214" fill="#E5E5E5"/>
<path d="M135.9 63.4594L103 44V169L135.9 149.541C136.287 149.34 136.673 149.127 137.056 148.901L174.591 126.749C189.803 117.772 189.803 95.2278 174.591 86.2506L137.056 64.0991C136.673 63.8731 136.287 63.6599 135.9 63.4594Z" fill="#6200FF"/>
<path d="M33.9221 3.20233C18.8817 -5.84388 0 5.35115 0 23.3148V190.685C0 208.649 18.8818 219.844 33.9221 210.798L92.8004 175.385C93.1572 175.17 93.5068 174.946 93.8492 174.714L104 168.65V45.3537L90.7815 37.2939L90.7828 37.4018L33.9221 3.20233Z" fill="#6200FF"/>
</svg>
