<svg width="169" height="190" viewBox="0 0 169 190" fill="none" xmlns="http://www.w3.org/2000/svg">
<rect width="169" height="190" fill="#E5E5E5"/>
<path d="M157.812 77.6579L123.962 58.2125C110.629 50.5529 94 60.1778 94 75.5546V114.445C94 129.822 110.629 139.447 123.962 131.788L157.812 112.342C171.195 104.654 171.195 85.3462 157.812 77.6579Z" fill="#6200FF"/>
<path d="M94 41V149L127 130V60L94 41Z" fill="#6200FF"/>
<path d="M157.812 77.6579L123.962 58.2125C110.629 50.5529 94 60.1778 94 75.5546V114.445C94 129.822 110.629 139.447 123.962 131.788L157.812 112.342C171.195 104.654 171.195 85.3462 157.812 77.6579Z" stroke="#6200FF"/>
<path d="M94 41V149L127 130V60L94 41Z" stroke="#6200FF"/>
<path d="M30.5717 4.0284L84.0717 35.2129C90.2193 38.7963 94 45.3761 94 52.4918V137.508C94 144.624 90.2193 151.204 84.0717 154.787L30.5717 185.972C17.2385 193.743 0.5 184.126 0.5 168.693V21.3073C0.5 5.87449 17.2385 -3.74334 30.5717 4.0284Z" fill="#6200FF"/>
<path d="M94 41L83 34.5L84.5 154.5L94 149V41Z" fill="#6200FF"/>
<path d="M30.5717 4.0284L84.0717 35.2129C90.2193 38.7963 94 45.3761 94 52.4918V137.508C94 144.624 90.2193 151.204 84.0717 154.787L30.5717 185.972C17.2385 193.743 0.5 184.126 0.5 168.693V21.3073C0.5 5.87449 17.2385 -3.74334 30.5717 4.0284Z" stroke="#6200FF"/>
<path d="M94 41L83 34.5L84.5 154.5L94 149V41Z" stroke="#6200FF"/>
</svg>
